<svg width="71" height="19" viewBox="0 0 71 19" fill="none" xmlns="http://www.w3.org/2000/svg">
<path d="M8.87109 0.808594C3.99609 0.808594 0.949219 4.17188 0.949219 9.55078C0.949219 14.9297 3.99609 18.2812 8.87109 18.2812C13.7344 18.2812 16.793 14.9297 16.793 9.55078C16.793 4.17188 13.7344 0.808594 8.87109 0.808594ZM8.87109 3.11719C12.082 3.11719 14.0977 5.60156 14.0977 9.55078C14.0977 13.4883 12.082 15.9727 8.87109 15.9727C5.66016 15.9727 3.63281 13.4883 3.63281 9.55078C3.63281 5.60156 5.66016 3.11719 8.87109 3.11719ZM17.5561 18H20.0873V10.8164C20.0873 8.90625 21.2358 7.64062 23.017 7.64062C24.7748 7.64062 25.642 8.66016 25.642 10.5117V18H28.185V10.0195C28.185 7.19531 26.6264 5.46094 23.9077 5.46094C22.0092 5.46094 20.6967 6.32812 20.0287 7.73438H19.9702V5.67188H17.5561V18ZM34.3505 7.48828C36.12 7.48828 37.3153 8.8125 37.3739 10.6992H31.2098C31.3387 8.83594 32.5809 7.48828 34.3505 7.48828ZM37.3622 14.3789C37.0223 15.457 35.9559 16.1836 34.5145 16.1836C32.4872 16.1836 31.1981 14.7656 31.1981 12.6211V12.4688H39.9052V11.6016C39.9052 7.86328 37.7723 5.44922 34.3505 5.44922C30.87 5.44922 28.6434 8.02734 28.6434 11.8945C28.6434 15.7852 30.8348 18.2344 34.4559 18.2344C37.2802 18.2344 39.413 16.6289 39.7645 14.3789H37.3622ZM45.0628 18.2109C46.8558 18.2109 48.262 17.3086 48.9886 15.9023H49.0355V18H51.4964V1.08984H48.9534V7.72266H48.9066C48.2152 6.36328 46.8089 5.47266 45.0394 5.47266C41.9456 5.47266 39.8831 7.94531 39.8831 11.8359C39.8831 15.7266 41.9456 18.2109 45.0628 18.2109ZM45.7308 7.60547C47.6761 7.60547 48.9769 9.28125 48.9769 11.8359C48.9769 14.4141 47.6761 16.0664 45.7308 16.0664C43.7269 16.0664 42.473 14.4375 42.473 11.8359C42.473 9.24609 43.7269 7.60547 45.7308 7.60547ZM52.74 18H55.2712V5.67188H52.74V18ZM54.0056 3.86719C54.8259 3.86719 55.4822 3.22266 55.4822 2.42578C55.4822 1.61719 54.8259 0.972656 54.0056 0.972656C53.197 0.972656 52.5408 1.61719 52.5408 2.42578C52.5408 3.22266 53.197 3.86719 54.0056 3.86719ZM61.718 18.2344C65.2453 18.2344 67.5656 15.8086 67.5656 11.8359C67.5656 7.875 65.2336 5.44922 61.718 5.44922C58.2023 5.44922 55.8703 7.875 55.8703 11.8359C55.8703 15.8086 58.1906 18.2344 61.718 18.2344ZM61.718 16.1484C59.7375 16.1484 58.4484 14.5781 58.4484 11.8359C58.4484 9.10547 59.7375 7.53516 61.718 7.53516C63.6984 7.53516 64.9875 9.10547 64.9875 11.8359C64.9875 14.5781 63.7102 16.1484 61.718 16.1484ZM69.3952 18.1289C70.2506 18.1289 70.9303 17.4492 70.9303 16.5938C70.9303 15.7383 70.2506 15.0586 69.3952 15.0586C68.5397 15.0586 67.86 15.7383 67.86 16.5938C67.86 17.4492 68.5397 18.1289 69.3952 18.1289Z" fill="#171717"/>
</svg>
