<svg width="48" height="48" viewBox="0 0 48 48" fill="none" xmlns="http://www.w3.org/2000/svg">
<g filter="url(#filter0_d_41_2)">
<circle cx="24" cy="20" r="20" fill="#262626"/>
<path d="M28.7273 16.0053V22.203C28.242 21.9332 27.6778 21.8252 27.1223 21.8956C26.5667 21.966 26.0508 22.211 25.6546 22.5924C25.2584 22.9739 25.004 23.4706 24.9309 24.0054C24.8577 24.5403 24.97 25.0834 25.2501 25.5506C25.5303 26.0178 25.9628 26.3829 26.4805 26.5894C26.9982 26.7958 27.5722 26.832 28.1134 26.6924C28.6547 26.5528 29.1329 26.2451 29.474 25.8171C29.8151 25.3891 30 24.8647 30 24.3252V11.9814C30.0002 11.8241 29.9611 11.6691 29.8859 11.5294C29.8108 11.3898 29.7019 11.2696 29.5683 11.179C29.4348 11.0884 29.2805 11.03 29.1187 11.0089C28.9568 10.9878 28.792 11.0044 28.6382 11.0575L20.4927 13.8586C20.2953 13.9267 20.1245 14.052 20.0037 14.2171C19.883 14.3823 19.8182 14.5793 19.8182 14.7812V23.4271C19.333 23.1574 18.7689 23.0493 18.2134 23.1197C17.6579 23.1901 17.142 23.4349 16.7458 23.8163C16.3495 24.1977 16.0951 24.6943 16.0218 25.2291C15.9486 25.7639 16.0607 26.307 16.3407 26.7742C16.6208 27.2414 17.0531 27.6066 17.5707 27.8132C18.0882 28.0198 18.6621 28.0561 19.2034 27.9167C19.7446 27.7773 20.223 27.4698 20.5643 27.042C20.9055 26.6142 21.0906 26.09 21.0909 25.5505V18.6312L28.7273 16.0066V16.0053Z" fill="white"/>
</g>
<defs>
<filter id="filter0_d_41_2" x="0" y="0" width="48" height="48" filterUnits="userSpaceOnUse" color-interpolation-filters="sRGB">
<feFlood flood-opacity="0" result="BackgroundImageFix"/>
<feColorMatrix in="SourceAlpha" type="matrix" values="0 0 0 0 0 0 0 0 0 0 0 0 0 0 0 0 0 0 127 0" result="hardAlpha"/>
<feOffset dy="4"/>
<feGaussianBlur stdDeviation="2"/>
<feComposite in2="hardAlpha" operator="out"/>
<feColorMatrix type="matrix" values="0 0 0 0 0 0 0 0 0 0 0 0 0 0 0 0 0 0 0.25 0"/>
<feBlend mode="normal" in2="BackgroundImageFix" result="effect1_dropShadow_41_2"/>
<feBlend mode="normal" in="SourceGraphic" in2="effect1_dropShadow_41_2" result="shape"/>
</filter>
</defs>
</svg>
